<svg xmlns="http://www.w3.org/2000/svg" fill="none" viewBox="0 0 64 64">
  <path
    fill="#de3444"
    d="M46.1721 18.2222c.0789.0792-.0527-.6813-.3923-1.3361-.079-.1321-.4186-.7341-.4975-.8134 0 0-2.4298-2.8835-3.9988-3.8526-.7582-.4727-1.569-.9163-2.3772-1.2596-.9134-.3935-1.7506-.7077-2.5087-.9163-1.5164-.41989-3.059-.65491-4.599-.70772C30.8588 6.00664 30.3612 4.32984 29.4451 1c-.6002 3.45923-.8898 5.16508-1.5163 8.62431-.6529.13203-1.3057.26142-1.9349.44629-.7318.2086-1.5163.4991-2.4825.9427-.8108.367-1.6216.8133-2.3271 1.2833-.8635.5493-1.5426 1.0748-2.1165 1.6003-.287.235-.5239.4726-.7845.734-.079.0793-.1316.1057-.208.1823-.1053.1056-.208.2086-.3133.3406-.0526.0528-.0789.1056-.1579.1584-.158.1585-.3133.3407-.4712.4991-2.4298 2.7516-4.1041 6.187-4.7833 9.9367 0 .0528-.0263.1056-.0263.1585-.079.6284-.2343 1.6504-.2343 2.9892-.0263 1.4153.1053 2.7277.3396 4.0111-1.6216.4462-2.4035.6813-4.02512 1.1275 0 0 1.98752.2615 2.09022.3935-.81082.2878-1.20307.4198-2.01125.6813.4449.132.67919.1822 1.12408.3142-.05265.0528-2.69305.5757-2.84837.6021.3396.0264 1.88224.1822 2.61408.3934C8.01387 37.2849 7.36101 37.7286 6 38.5947c0 0 7.1341-1.2596 7.3973-1.2596h.158c.079 0 .1579-.0264.208-.0264.4449.9691.9661 1.9145 1.5426 2.8044 1.3847 2.0438 3.1617 3.8262 5.2018 5.1386.3133.2086.6529.4199.9925.6021-.079.8133-.1816 1.6266-.2606 2.4373-.3396 3.2797-.4976 4.9037-.8372 8.1807.3923-1.2596.6003-1.8617.9925-3.1186.079.0264.158.0792.2343.1056.1816.0528.3659.0528.4975-.0264-.2343 1.1276-.3396 1.7032-.5738 2.8308.3395-.4199.5238-.6285.8371-1.0483.0263.132.0526.235.1053.3142-.1053.4991-.208.9955-.287 1.4154-.0789.5255-.1316.7869-.2079 1.3097-.2606 1.2596-.3659 1.8881-.6266 3.145.079-.1584.1317-.235.208-.367-.1316.602-.1816.9163-.3133 1.5474 1.0978-2.3079 1.6454-3.4593 2.7194-5.7672.1316-.2878.287-.6284.4449-1.0747.158-.4727.287-.9427.4449-1.389.2606-.8397.4976-1.5738.6002-2.0702.3133-1.4946.6002-2.9628.8898-4.4046.3396.0792.7055.1584 1.0451.235 1.4374.2614 2.9537.3935 4.47.3142.9135-.0264 1.8033-.132 2.6931-.2878 1.0451-.1822 2.0902-.4463 3.1353-.8133.2606-.0792.5238-.2086.7845-.2878v.0528c.1816.5756.2606.8661.4185 1.4154.366-.4727.5476-.7077.9135-1.1804.0263-.0264.0263-.0528.0527-.0792.3659.4991 1.0187 1.6266 1.9349 4.0639.2606.7077 3.0826 7.1033 3.0826 6.9211.0527-1.7032-.6792-4.2989-.8108-5.0594 0-.0793.5739 1.3097.5476 1.2331.0526-.0528.1053-.0792.1579-.1056-.0526-.2086-.1053-.3142-.1579-.5255-1.0715-3.5648-1.8559-6.2398-2.5088-8.6243.6265-.3934 1.2294-.8397 1.8033-1.3361.0789-.0529.1053-.1057.1816-.1585.1316-.1056.2606-.235.3922-.3406 1.8296-1.6267 3.3723-3.7497 4.3647-5.952.4976-1.1012.8898-2.2551 1.1504-3.4091.2343-1.0483.366-2.123.3923-3.1978 0-.3934 0-.8133-.0263-1.2068.4712-.132.7055-.3142.7581-.6812 0-.0264.1053-.4463 1.7243-.8926.287-.0792.7319-.1056 1.0978-.132.5739-.0528.8634-.0792 1.0977-.1822.4186-.2086.4976-.5757.4449-.8397v-.0264c1.0978-.5493 1.6453-.8133 2.7431-1.3626-1.698.1822-2.5351.2614-4.2331.4463-1.3847.1584-2.743.3142-4.1041.499-.0789-.3406-.1579-.6548-.2606-.9955-.0789.0264-.1316.0264-.2079.0264-.208-.8925-.4449-1.6002-.6002-1.9408-.366-.9163-.6529-1.4682-.8635-1.7561-.1053-.1822-.4712-.6812-1.0451-.5492-.1316.0264-.2606.1056-.3659.2086-.287-.6021-.4449-.8925-.7319-1.4682-.2079-.1056-.5739-.3406-.8108-.4727.0263.2351.0263.3407.0527.5493-.0527-.0264-.1053-.0528-.158-.0528-.079-.1321-.1579-.235-.2343-.3671-.0526-.1056-.1053-.132-.1579-.235-.1817-.2614-.7319-1.0747-.8898-1.2833-.6002-.6021-.8898-.9163-1.49-1.521.3922.5756.5739.8661.9661 1.4417-.9924-.6284-1.49-.9163-2.4824-1.5474.5238.6813.7844 1.022 1.332 1.7032.0527.1057 1.1504 2.1495 1.2031 2.2816.0789.1822.1579.367.2606.5756.4712.9163.8108 1.8617 1.0451 2.5693.079.2087.1316.3671.1816.5255.3396.9427.6002 1.9409.7319 2.9628-.4449.0528-.8635.1321-1.3058.1822-1.8559.2879-3.7118.5493-5.594.8133-.0264 0-.0527 0-.079.0265-.208.0528-.5739.132-1.0714.2086-.3396-1.0484-.9662-2.9364-1.8033-5.7144-1.2031-4.0375-1.8033-6.0813-2.98-10.1453.4449.0528.8898.0792 1.3057.1585.2606.0528.5239.0792.7319.132 1.9875.367 3.1879.4991 1.5163-.0264 0 0-.1817.0264 0 0 .1053 0 .2343-.0264.3659 0 .158 0 .3659.0264.5476.0528 1.124.1822 2.3008.6549 3.5275 1.3362.3712.1848 1.9639.396 5.6231 4.1695Zm-15.5239 7.4202c.1316-.7077.1816-1.0747.2869-1.7824.6792 2.0702 1.0451 3.1186 1.7506 5.1914-.8898.1321-1.8559.2879-2.7957.4199v-.4199l-.0526-.0528c.3395-1.3124.4975-1.9936.8108-3.3562Zm-8.3109 14.6793c-.0263-.0264-.0526-.0264-.0526-.0528-1.3321-1.022-2.4561-2.2287-3.3196-3.5649 1.0451-.132 2.0639-.2614 3.0326-.3934.287-.0529.4449-.0529.7319-.1057 0 0 .3396-.2086.3922-.2086-.2606 1.3124-.5502 2.807-.7845 4.3254ZM25.37 23.9894c-.4712 2.5429-.8635 4.6924-1.1767 6.319-1.0715.1584-1.9349.2614-2.5088.3142-.1316.0264-.1817.0264-.287.0528-1.0451.1321-2.901.3935-4.4963.7605-.2869-1.5738-.3396-3.1714-.1579-4.7452.2343-1.8616.8108-3.644 1.6716-5.3473.1316-.3142.3133-.602.4712-.9163.079-.132.1053-.1822.1817-.3142.1816-.2878.3659-.5757.5475-.8661.4976-.6813.9925-1.3098 1.5163-1.8089.8635-.8397 1.9349-1.6266 3.0064-2.2022.3659-.1822.5238-.2615.8898-.4463.1816-.0792.3659-.1584.5475-.235.1053-.0528.2343-.0792.3396-.1321.287-.1056.5476-.2086.8108-.2878.1053-.0264.2343-.0528.3396-.1056.0527-.0264.079-.0264.1316-.0264-.7555 4.0375-1.0951 6.0021-1.8269 9.9869Zm8.911 18.928c-1.0451.235-2.1692.3407-3.2932.3143-1.1505-.0265-2.2482-.1585-3.2933-.4199-.079-.0264-.1316-.0264-.208-.0528.5239-2.6486.9925-5.1915 1.4637-7.6024.0526 0 4.6516-.9955 5.4098-1.1804.1816.5255.2606.7869.4449 1.3362.5739 1.4946 1.1767 3.042 1.6716 4.4838.2343.7077.4713 1.521.7319 2.3343-.8872.3671-1.8559.6311-2.9274.7869Zm11.0302-10.618c-.6265 2.675-2.0902 5.1651-4.1041 7.0532-.1579.1584-.2342.235-.3922.367-.5476-1.9937-1.1504-4.1431-1.9086-6.7891.9662-.235 1.9613-.4726 3.0064-.7076.6791-.2087 1.411-.4463 2.0375-.5757.4712-.1056 1.0188-.1584 1.569-.2086-.079.2588-.129.573-.208.8608Z"
  />
</svg>
