<svg xmlns="http://www.w3.org/2000/svg" fill="none" viewBox="0 0 608 96">
  <g clip-path="url(#a)">
    <path
      fill="#273038"
      fill-rule="evenodd"
      d="M0 28.3629h3.377v3.4657H0v-3.4657Z"
      clip-rule="evenodd"
    />
    <path
      fill="#fff"
      fill-rule="evenodd"
      d="M469.683 7.09588H283.828V4.58661h185.855v2.50927Zm-299.891 0h114.036V4.58661H169.792v2.50927Z"
      clip-rule="evenodd"
    />
    <path
      fill="#fff"
      d="M156.063 9.63599h13.278l.902-1.14151h21.334l.862 1.17236h11.624l.751 4.84366h-13.207l-.862-1.162h-19.68l-.892 1.162h-14.059l-.041-4.86423-.01-.01028Z"
    />
    <path
      fill="#fff"
      fill-rule="evenodd"
      d="M115.399 14.49h1.824l2.816-4.83344h-2.295l-2.335 4.02104v.8124h-.01Zm2.726 0h2.335l2.815-4.83344h-2.334L118.125 14.49Zm3.237 0h2.354l2.806-4.83344h-2.355L121.351 14.49h.011Zm3.266 0h2.285l2.816-4.83344h-2.285L124.638 14.49h-.01Zm3.187 0h2.265l2.815-4.83344h-2.274L127.805 14.49h.01Zm3.176 0h2.355l2.816-4.83344h-2.355L130.991 14.49Zm3.267 0h2.295l2.816-4.83344h-2.295L134.258 14.49Zm3.207 0h2.325l2.816-4.83344h-2.325L137.465 14.49Zm3.237 0h2.314l2.816-4.83344h-2.315L140.702 14.49Zm3.216 0h2.355l2.816-4.83344h-2.345L143.928 14.49h-.01Zm3.257 0h2.315l2.816-4.83344h-2.315L147.175 14.49Zm3.217 0h2.314l2.626-4.50436.571.57586-2.285 3.9285h2.486V9.65656h-2.896L150.392 14.49Zm-33.56-4.83344h-1.433v2.45784l1.433-2.45784Z"
      clip-rule="evenodd"
    />
    <path
      fill="#00ff85"
      fill-rule="evenodd"
      d="M244.757 14.4694h-1.824l-2.815-4.83341h2.294l2.335 4.02101v.8124h.01Zm-2.725 0h-2.335l-2.816-4.83341h2.335l2.816 4.83341Zm-3.237 0h-2.355l-2.806-4.83341h2.355l2.816 4.83341h-.01Zm-3.267 0h-2.285l-2.815-4.83341h2.284l2.806 4.83341h.01Zm-3.187 0h-2.264l-2.816-4.83341h2.275l2.816 4.83341h-.011Zm-3.176 0h-2.355l-2.816-4.83341h2.355l2.816 4.83341Zm-3.267 0h-2.295l-2.815-4.83341h2.294l2.816 4.83341Zm-3.207 0h-2.324l-2.816-4.83341h2.325l2.815 4.83341Zm-3.236 0h-2.315l-2.816-4.83341h2.315l2.816 4.83341Zm-3.217 0h-2.355l-2.816-4.83341h2.345l2.816 4.83341h.01Zm-3.257 0h-2.314l-2.816-4.83341h2.315l2.815 4.83341Zm-3.216 0h-2.315l-2.626-4.50433-.571.57593 2.285 3.9284h-2.485V9.63599h2.896l2.816 4.83341Zm33.559-4.83341h1.433v2.45781l-1.433-2.45781Z"
      clip-rule="evenodd"
    />
    <path
      fill="#fff"
      fill-rule="evenodd"
      d="M117.043 5.50189c-22.9179-.10283-52.4692-.24681-75.3867-.0617L27.8678 22.9536h1.4129L42.4379 6.25262c22.4265 0 51.6771.0617 73.9431.0617l.672-.81243h-.01Z"
      clip-rule="evenodd"
    />
    <path
      fill="#fff"
      fill-rule="evenodd"
      d="M28.2986 19.0355c1.3929-.8536 3.1967-.3805 4.0284 1.0386.8317 1.4295.3708 3.2806-1.0121 4.1341-1.3929.8536-3.1966.3805-4.0284-1.0386-.8317-1.4295-.3707-3.2806 1.0121-4.1341Z"
      clip-rule="evenodd"
    />
    <path fill="#00ff85" d="M514.857 4.17526h-41.376v3.05431h41.376V4.17526Z" />
    <path
      fill="#00ff85"
      fill-rule="evenodd"
      d="M514.186 7.22957h-1.824l-2.816-4.83342h2.295l2.335 4.02099v.81243h.01Zm-2.726 0h-2.335l-2.816-4.83342h2.335l2.816 4.83342Zm-3.237 0h-2.355l-2.805-4.83342h2.354l2.816 4.83342h-.01Zm-3.267 0h-2.284l-2.816-4.83342h2.285l2.805 4.83342h.01Zm-3.186 0h-2.265l-2.816-4.83342h2.275l2.816 4.83342h-.01Zm-3.177 0h-2.355l-2.815-4.83342h2.354l2.816 4.83342Zm-3.267 0h-2.294l-2.816-4.83342h2.295l2.815 4.83342Zm-3.206 0h-2.325l-2.816-4.83342h2.325l2.816 4.83342Zm-3.237 0h-2.315l-2.815-4.83342h2.314l2.816 4.83342Zm-3.217 0h-2.354l-2.816-4.83342h2.345l2.815 4.83342h.01Zm-3.256 0h-2.315l-2.816-4.83342h2.315l2.816 4.83342Zm-3.217 0h-2.315l-2.625-4.50434-.571.5759 2.284 3.92844h-2.485V2.40643h2.896l2.816 4.83343v-.01029Zm33.56-4.83342h1.433V4.854l-1.433-2.45785Z"
      clip-rule="evenodd"
    />
    <path
      fill="#00c6ff"
      d="M594.332 0c1.292 0 2.345 1.07981 2.345 2.40643s-1.053 2.40642-2.345 2.40642c-1.293 0-2.345-1.0798-2.345-2.40642C591.987 1.07981 593.039 0 594.332 0Zm0 4.17525c.952 0 1.733-.79185 1.733-1.77911 0-.98725-.771-1.779107-1.733-1.779107-.962 0-1.734.791857-1.734 1.779107 0 .98726.772 1.77911 1.734 1.77911Z"
    />
    <path
      fill="#fff"
      d="M593.66 2.40643c0-.38051.301-.69931.682-.69931.38 0 .681.30852.681.69931 0 .39078-.301.6993-.681.6993-.381 0-.682-.30852-.682-.6993Z"
    />
    <path
      fill="#00a4ff"
      d="M93.8946 10.9318h12.9364l6.424 7.5689h374.506l7.375-7.5689h57.008l40.194 41.2383v31.6744h-54.022l-6.414-7.569H157.396l-7.385 7.569H93.0027L52.8195 42.6061V10.9318h41.0751Z"
      opacity=".2"
    />
    <path
      fill="#00c6ff"
      d="m506.069 2.40642.01 5.04939 47.649-.17483 35.243 36.17872 3.367 3.4965v-7.1987L555.762 2.2316l-49.693.17482ZM139.088 91.9379l-.02-5.0494-47.6485.1748-35.2431-36.1684-3.3569-3.5068v7.1987l36.3954 37.3511h49.8731Z"
    />
    <path
      fill="#00c6ff"
      d="M592.338 2.08762h-86.269v.62731h86.269v-.62731ZM53.1602 91.6191c0 1.3266-1.0522 2.4064-2.3449 2.4064s-2.3449-1.0798-2.3449-2.4064c0-1.3267 1.0522-2.4065 2.3449-2.4065s2.3449 1.0798 2.3449 2.4065Zm-.6113 0c0-.977-.7716-1.7791-1.7336-1.7791-.962 0-1.7336.7918-1.7336 1.7791 0 .9872.7716 1.7791 1.7336 1.7791.962 0 1.7336-.7919 1.7336-1.7791Z"
    />
    <path
      fill="#fff"
      d="M51.4967 91.6191c0-.3805-.3006-.6993-.6814-.6993s-.6814.3085-.6814.6993c0 .3908.3006.6993.6814.6993s.6814-.3085.6814-.6993Z"
    />
    <path fill="#00c6ff" d="M139.088 91.3105H52.8195v.6274h86.2685v-.6274Z" />
    <path
      fill="#bde6ff"
      d="M592.338 46.9562v-7.1987l-16.905-17.3489h-6.965l23.87 24.5476Zm-539.5185.4319v7.1987l16.905 17.3489h6.9544L52.8195 47.3881Z"
      opacity=".75"
    />
    <path
      fill="#46ffec"
      d="M595.735 93.2131h-36.616l-8.799-9.0293v-16.557l8.799-9.0293h36.616l8.798 9.0293v16.557l-8.798 9.0293Z"
      style="mix-blend-mode:overlay"
    />
    <path
      fill="#fe4e3a"
      stroke="#FE4E3A"
      stroke-linecap="square"
      stroke-miterlimit="10"
      stroke-width=".5"
      d="M553.066 95.7429h-5.962v-6.3965c0-.1132.09-.2057.2-.2057.11 0 .201.0925.201.2057v5.9852h5.561c.11 0 .201.0925.201.2057 0 .1131-.091.2056-.201.2056Zm54.483-6.3246c.11 0 .2.0926.2.2057v6.1189h-6.232c-.111 0-.201-.0925-.201-.2057 0-.1131.09-.2056.201-.2056h5.832V89.624c0-.1131.09-.2057.2-.2057v0Zm-5.772-34.1219h5.962v6.3966c0 .1131-.09.2057-.2.2057-.11 0-.2-.0926-.2-.2057v-5.9852h-5.562c-.11 0-.2-.0926-.2-.2057 0-.1131.09-.2057.2-.2057v0Zm-54.473 6.3246c-.11 0-.2-.0926-.2-.2057v-6.1189h6.233c.11 0 .2.0926.2.2057 0 .1131-.09.2057-.2.2057h-5.832v5.7075c0 .1131-.091.2057-.201.2057v0Z"
    />
    <path
      stroke="#fff"
      stroke-miterlimit="10"
      stroke-width=".5"
      d="M595.735 93.2131h-36.616l-8.799-9.0293v-16.557l8.799-9.0293h36.616l8.798 9.0293v16.557l-8.798 9.0293Z"
      opacity=".6"
    />
    <path
      fill="#00ff85"
      d="m97.001 24.6402-2.9962-5.3168c-.1703-.2982-.501-.4319-.8117-.3599L86.3289 6.7668c.2104-.23653.2706-.60675.1002-.89469-.3607-.33937-2.9461-6.016073-3.6375-5.697273-.6814-.339368-3.2969 5.388753-3.6376 5.697273-.1703.29823-.1202.65816.1002.89469L72.39 18.9635c-.3106-.072-.6413.0617-.8117.3599-.1102.4936-3.6074 5.6253-2.9962 6.0881.0501.7713 6.1929.2365 6.6338.3805.3307 0 .6112-.2263.7114-.5348h13.7285c.1002.3085.3708.5348.7115.5348h5.9824c.5611.0205.9419-.6685.6513-1.1518Zm-21.7751-.3805h-4.6897l2.3448-4.165c.1704-.2982.1203-.6582-.1002-.8947l6.8643-12.19667c.3106.07199.6413-.0617.8116-.35993l2.3449-4.16497 2.3449 4.16497c.1703.29823.501.4422.8116.35993L92.8224 19.2c-.2105.2365-.2706.6068-.1002.8947l2.3448 4.165h-4.6897c-.3307 0-.6113.2262-.7115.5347H75.9374c-.1002-.3085-.3708-.5347-.7115-.5347Z"
      style="mix-blend-mode:lighten"
    />
    <path
      fill="#00ff85"
      d="m82.2304 16.6599 3.8179-3.805v-1.882l-1.5632-1.58371H81.048l-1.453 1.49121v.8638h-1.2025v-1.2546l2.1244-2.18021h4.4893l2.2146 2.27271v2.643l-3.818 3.805v3.1366h-1.1824v-3.5068h.01Zm-.2104 6.3143v-.7096l.4609-.473h.6714l.461.473v.7096l-.461.4731h-.6714l-.4609-.4731Z"
    />
  </g>
  <defs>
    <clipPath id="a">
      <path fill="#fff" d="M0 0h608v96H0z" />
    </clipPath>
  </defs>
</svg>
