<svg xmlns="http://www.w3.org/2000/svg" fill="none" viewBox="0 0 616 88">
  <g clip-path="url(#a)">
    <path
      fill="#273038"
      fill-rule="evenodd"
      d="M615.599 61.9081h-3.413v-3.1773h3.413v3.1773Z"
      clip-rule="evenodd"
    />
    <path
      fill="#fff"
      fill-rule="evenodd"
      d="M145.52 81.8381h186.064v2.407H145.52v-2.407Zm300.874 0H332.186v2.407h114.208v-2.407Z"
      clip-rule="evenodd"
    />
    <path
      fill="#fff"
      d="M459.341 79.6236h-13.248l-.903 1.0591h-21.376l-.904-1.0591h-11.641l-.803-4.5252h13.247l.904 1.0591h19.67l.903-1.0591h14.05l.101 4.5252Z"
    />
    <path
      fill="#fff"
      fill-rule="evenodd"
      d="M500.387 75.0984h-1.806l-2.81 4.5252h2.308l2.308-3.7549v-.7703Zm-2.71 0h-2.308l-2.81 4.5252h2.308l2.81-4.5252Zm-3.211 0h-2.409l-2.81 4.5252h2.409l2.81-4.5252Zm-3.312 0h-2.308l-2.81 4.5252h2.308l2.81-4.5252Zm-3.211 0h-2.208l-2.81 4.5252h2.308l2.71-4.5252Zm-3.111 0h-2.409l-2.81 4.5252h2.409l2.81-4.5252Zm-3.312 0h-2.309l-2.81 4.5252h2.309l2.81-4.5252Zm-3.212 0H476l-2.81 4.5252h2.308l2.81-4.5252Zm-3.211 0h-2.308l-2.81 4.5252h2.308l2.81-4.5252Zm-3.212 0h-2.408l-2.81 4.5252h2.308l2.91-4.5252Zm-3.312 0h-2.308l-2.81 4.5252h2.308l2.81-4.5252Zm-3.211 0h-2.308l-2.61 4.2364-.602-.5777 2.309-3.6587h-2.509v4.5252h2.91l2.81-4.5252Zm33.62 4.5252h1.405v-2.3107l-1.405 2.3107Z"
      clip-rule="evenodd"
    />
    <path
      fill="#00ff85"
      fill-rule="evenodd"
      d="M371.326 75.0984h1.807l2.81 4.5252h-2.309l-2.308-3.7549v-.7703Zm2.81 0h2.308l2.81 4.5252h-2.308l-2.81-4.5252Zm3.212 0h2.408l2.81 4.5252h-2.408l-2.81-4.5252Zm3.311 0h2.309l2.81 4.5252h-2.308l-2.811-4.5252Zm3.112 0h2.308l2.81 4.5252h-2.308l-2.81-4.5252Zm3.211 0h2.409l2.81 4.5252h-2.409l-2.81-4.5252Zm3.312 0h2.308l2.81 4.5252h-2.308l-2.81-4.5252Zm3.211 0h2.309l2.81 4.5252h-2.309l-2.81-4.5252Zm3.212 0h2.308l2.81 4.5252h-2.308l-2.81-4.5252Zm3.211 0h2.409l2.81 4.5252h-2.308l-2.911-4.5252Zm3.312 0h2.308l2.81 4.5252h-2.308l-2.81-4.5252Zm3.212 0h2.308l2.609 4.2364.602-.5777-2.308-3.6587h2.509v4.5252h-2.91l-2.81-4.5252Zm-33.62 4.5252h-1.405v-2.3107l1.405 2.3107Z"
      clip-rule="evenodd"
    />
    <path
      fill="#fff"
      fill-rule="evenodd"
      d="M498.781 83.6674c22.982.0963 52.588.1926 75.47.0963L588.1 67.3961h-1.405l-13.147 15.5973c-22.48 0-51.785-.0962-74.064-.0962l-.703.7702Z"
      clip-rule="evenodd"
    />
    <path
      fill="#fff"
      fill-rule="evenodd"
      d="M587.506 70.677c-1.405.7703-3.211.3852-4.014-.9628-.803-1.3479-.402-3.0809 1.003-3.8512 1.405-.7702 3.212-.3851 4.015.9628.802 1.3479.301 3.081-1.004 3.8512Z"
      clip-rule="evenodd"
    />
    <path fill="#00ff85" d="M141.806 81.8381h-41.448v2.8884h41.448v-2.8884Z" />
    <path
      fill="#00ff85"
      fill-rule="evenodd"
      d="M101.362 81.8381h1.806l2.811 4.5251h-2.309l-2.308-3.7549v-.7702Zm2.71 0h2.308l2.81 4.5251h-2.308l-2.81-4.5251Zm3.211 0h2.308l2.81 4.5251h-2.308l-2.81-4.5251Zm3.312 0h2.308l2.81 4.5251h-2.308l-2.81-4.5251Zm3.211 0h2.309l2.81 4.5251h-2.309l-2.81-4.5251Zm3.112 0h2.308l2.81 4.5251h-2.308l-2.81-4.5251Zm3.311 0h2.309l2.81 4.5251h-2.309l-2.81-4.5251Zm3.212 0h2.308l2.81 4.5251h-2.308l-2.81-4.5251Zm3.211 0h2.309l2.81 4.5251h-2.309l-2.81-4.5251Zm3.212 0h2.408l2.81 4.5251h-2.308l-2.91-4.5251Zm3.312 0h2.308l2.81 4.5251h-2.308l-2.81-4.5251Zm3.211 0h2.308l2.61 4.2363.602-.5777-2.308-3.6586h2.509v4.5251h-2.911l-2.81-4.5251Zm-33.62 4.5251h-1.405v-2.3107l1.405 2.3107Z"
      clip-rule="evenodd"
    />
    <path
      fill="#00c6ff"
      d="M570.337 0c1.305 0 2.308.962801 2.308 2.21444 0 1.25164-1.003 2.21444-2.308 2.21444s-2.308-.9628-2.308-2.21444C568.029.962801 569.032 0 570.337 0Zm0 3.94748c1.004 0 1.706-.77024 1.706-1.63676S571.24.673961 570.337.673961c-.903 0-1.706.770239-1.706 1.636759 0 .86652.803 1.63676 1.706 1.63676Z"
    />
    <path
      fill="#fff"
      d="M570.036 2.59956c0-.38512.301-.67396.702-.67396.402 0 .703.28884.703.67396s-.301.67396-.703.67396c-.401 0-.702-.28884-.702-.67396Z"
    />
    <path
      fill="#00a4ff"
      d="M69.2473 10.5908h12.9462l6.423 7.1247H463.756l7.326-7.1247h57.104l40.244 38.6083v29.6543h-54.093l-6.423-7.0284H132.875l-7.427 7.0284H68.3441L28.1004 40.2451V10.5908h41.1469Z"
      opacity=".2"
    />
    <path
      fill="#00c6ff"
      d="M482.724 2.02188V6.7396l47.771-.09628 35.326 33.89058 3.312 3.2735v-6.7396L532.502 1.9256l-49.778.09628ZM114.509 85.9781v-4.7177l-47.7706.1925-35.2259-33.8906-3.4121-3.2735v6.7396l36.5304 34.9497h49.8782Z"
    />
    <path
      fill="#00c6ff"
      d="M569.133 1.9256h-86.409v.57768h86.409V1.9256ZM28.7025 85.9781c0 1.2517-1.0036 2.2145-2.3082 2.2145-1.3047 0-2.3083-1.0591-2.3083-2.2145 0-1.1554 1.0036-2.2144 2.3083-2.2144 1.3046 0 2.3082.9628 2.3082 2.2144Zm-.6021 0c0-.8665-.8029-1.6367-1.7061-1.6367-.9033 0-1.7061.7702-1.7061 1.6367s.8028 1.6368 1.7061 1.6368c.9032 0 1.7061-.674 1.7061-1.6368Z"
    />
    <path
      fill="#fff"
      d="M26.4946 86.3632c0-.3851-.3011-.6739-.7025-.6739-.4014 0-.7025.2888-.7025.6739 0 .3851.3011.674.7025.674.4014 0 .7025-.2889.7025-.674Z"
    />
    <path fill="#00c6ff" d="M114.509 85.6893H28.1004v.5776h86.4086v-.5776Z" />
    <path
      fill="#bde6ff"
      d="M568.832 44.1926V37.453l-16.861-16.2714h-7.025l23.886 23.011Zm-540.7316.0962v6.7396l16.9605 16.1751h7.0251L28.1004 44.2888Z"
      opacity=".75"
    />
    <path
      fill="#46ffec"
      d="M48.5735 39.186H11.8423c-3.41219-3.2735-5.319-5.1028-8.83155-8.4726V15.2123l8.83155-8.47268h36.6308l8.8316 8.47268v15.5011c-3.4122 3.2735-5.319 5.1028-8.7312 8.4726Z"
    />
    <path
      fill="#fe4e3a"
      stroke="#FE4E3A"
      stroke-linecap="square"
      stroke-miterlimit="10"
      stroke-width=".5"
      d="M6.02151 41.7855H0v-5.9693c0-.0963.100358-.1926.200717-.1926.100358 0 .200717.0963.200717.1926v5.5842H5.92115c.10036 0 .20071.0963.20071.1926 0 .0962 0 .1925-.10035.1925Zm54.39429-6.1619c.1003 0 .2007.0963.2007.1926v5.7768h-6.2222c-.1004 0-.2007-.0963-.2007-.1926s.1003-.1926.2007-.1926h5.8208v-5.2954c0-.1925.1003-.2888.2007-.2888ZM55.2975 3.8512h6.0215v5.96936c0 .09628-.1004.19254-.2007.19254-.1004 0-.2007-.09626-.2007-.19254V4.23632h-5.5198c-.1003 0-.2007-.09628-.2007-.19256s0-.19256.1004-.19256ZM.200717 9.72428C.100358 9.72428 0 9.628 0 9.53172V3.8512h6.22222c.10036 0 .20072.09628.20072.19256s0 .19256-.10036.19256H.401434V9.628c0 .09628 0 .19256-.200717.09628Z"
    />
    <path
      stroke="#fff"
      stroke-miterlimit="10"
      stroke-width=".5"
      d="M48.5735 39.186H11.8423c-3.41219-3.2735-5.319-5.1028-8.83155-8.4726V15.2123l8.83155-8.47268h36.6308l8.8316 8.47268v15.5011c-3.4122 3.2735-5.319 5.1028-8.7312 8.4726Z"
      opacity=".6"
    />
  </g>
  <defs>
    <clipPath id="a">
      <path fill="#fff" d="M0 0h616v88H0z" />
    </clipPath>
  </defs>
</svg>
